<svg width="512" height="512" viewBox="0 0 512 512" fill="none" xmlns="http://www.w3.org/2000/svg">
  <rect width="512" height="512" rx="96" fill="url(#bg)"/>
  <rect x="96" y="96" width="320" height="320" rx="120" fill="white" fill-opacity=".08"/>
  <path d="M216 184c-34 12-56 43-56 80 0 48 39 88 88 88 14 0 29-4 42-10-17-6-29-22-29-40 0-24 20-44 44-44 5 0 9 1 13 2-2-41-36-72-78-72-8 0-16 1-24 4Z" fill="white"/>
  <path d="M296 184c34 12 56 43 56 80 0 48-39 88-88 88-14 0-29-4-42-10 17-6 29-22 29-40 0-24-20-44-44-44-5 0-9 1-13 2 2-41 36-72 78-72 8 0 16 1 24 4Z" fill="#D9E4FF" fill-opacity=".9"/>
  <circle cx="214" cy="227" r="10" fill="#F72585"/>
  <circle cx="298" cy="208" r="10" fill="#FFB703"/>
  <circle cx="309" cy="286" r="10" fill="#06D6A0"/>
  <circle cx="217" cy="306" r="10" fill="#4CC9F0"/>
  <path d="M214 227l84-19m11 78-92 20m-3-79 3 79m81-98 11 78" stroke="white" stroke-opacity=".5" stroke-width="9" stroke-linecap="round"/>
  <defs>
    <linearGradient id="bg" x1="52" y1="52" x2="452" y2="460" gradientUnits="userSpaceOnUse">
      <stop stop-color="#14213D"/>
      <stop offset=".46" stop-color="#4361EE"/>
      <stop offset="1" stop-color="#7209B7"/>
    </linearGradient>
  </defs>
</svg>
